# xmcd
#
# Track frame offsets: 
#        150
#        35062
#        50920
#        69536
#        99875
#        115424
#        133737
#        151169
#        172976
#        193448
#        212547
#
# Disc length: 3078 seconds
#
# Revision: 0
# Processed by: cddbd v1.5.2PL0 Copyright (c) Steve Scherf et al.
# Submitted via: ExactAudioCopy v1.1
#
DISCID=a00c040b
DTITLE=jz james - West Memphis Turnaround
DYEAR=2008
DGENRE=Blues
TTITLE0=I'm a Stranger
TTITLE1=Take Your '45
TTITLE2=Blow Boys Blow
TTITLE3=Nina's Blues
TTITLE4=Come on Home
TTITLE5=Ballad of Sallie Mae
TTITLE6=Where 's Monk
TTITLE7=Opal Glance
TTITLE8=I ask you to be
TTITLE9=Save my love
TTITLE10=Wedding Bells
EXTD=
EXTT0=
EXTT1=
EXTT2=
EXTT3=
EXTT4=
EXTT5=
EXTT6=
EXTT7=
EXTT8=
EXTT9=
EXTT10=
PLAYORDER=
